<svg xmlns="http://www.w3.org/2000/svg" aria-hidden="true" viewBox="0 0 256 256"><path fill="#646CFF" d="m255.641 59.754-54.204 137.447a2.3 2.3 0 0 1-2.157 1.458H157.42a2.31 2.31 0 0 1-2.208-1.61L92.41 20.317a2.3 2.3 0 0 1 2.19-3.04h39.028a2.3 2.3 0 0 1 2.182 1.555l34.81 104.057 29.988-75.68a2.3 2.3 0 0 1 2.139-1.435h51.791a2.3 2.3 0 0 1 2.102 3.18z"/><path fill="#41D1FF" d="m144.182 215.221-26.035 20.217a2.3 2.3 0 0 1-3.05-.114L24.52 155.707a2.3 2.3 0 0 1-.65-2.318L42.27 99.3a2.3 2.3 0 0 1 3.676-.98l98.39 87.886a2.3 2.3 0 0 1-.154 3.94z"/><path fill="#BD34FE" d="m72.824 78.509-34.19-31.693a2.3 2.3 0 0 1-.166-3.258l23.76-26.84a2.3 2.3 0 0 1 3.236-.171l34.34 30.623a2.3 2.3 0 0 1 .163 3.268l-23.91 27.91a2.3 2.3 0 0 1-3.233.161z"/></svg>
